<svg width="33" height="33" viewBox="0 0 32.3438 32.3457" fill="none" xmlns="http://www.w3.org/2000/svg"><g fill="#DE1620"><path d="M20.0884 4.25647C20.0884 6.07911 17.7336 12.1692 16.6755 14.8136C16.4911 15.2745 15.8512 15.2745 15.6668 14.8136C14.6087 12.1692 12.2539 6.07911 12.2539 4.25647C12.2539 1.90569 14.0077 0 16.1712 0C18.3346 0 20.0884 1.90569 20.0884 4.25647Z"/><path d="M28.0873 20.0904C26.2646 20.0904 20.1746 17.7356 17.5301 16.6775C17.0693 16.4931 17.0693 15.8532 17.5301 15.6688C20.1746 14.6107 26.2646 12.2559 28.0873 12.2559C30.4381 12.2559 32.3437 14.0097 32.3437 16.1731C32.3437 18.3366 30.4381 20.0904 28.0873 20.0904Z"/><path d="M20.0884 28.0892C20.0884 26.2666 17.7336 20.1765 16.6755 17.5321C16.4911 17.0712 15.8512 17.0712 15.6668 17.5321C14.6087 20.1765 12.2539 26.2666 12.2539 28.0892C12.2539 30.44 14.0077 32.3457 16.1712 32.3457C18.3346 32.3457 20.0884 30.44 20.0884 28.0892Z"/><path d="M4.25647 20.0904C6.07911 20.0904 12.1692 17.7356 14.8136 16.6775C15.2745 16.4931 15.2745 15.8532 14.8136 15.6688C12.1692 14.6107 6.07911 12.2559 4.25647 12.2559C1.90569 12.2559 0 14.0097 0 16.1731C0 18.3366 1.90569 20.0904 4.25647 20.0904Z"/></g><g stroke="#DE1620" stroke-width="1.67191" stroke-linecap="round"><line x1="7.85767" y1="7.25621" x2="12.0577" y2="11.262"/><line x1="21.0384" y1="20.313" x2="25.594" y2="24.2397"/><line x1="7.01143" y1="24.4044" x2="11.356" y2="20.3359"/><line x1="20.3921" y1="11.1762" x2="24.5161" y2="7.03528"/></g></svg>
